PathFileType	4	(X/Y/Z)	6_coords_data.trc
DataRate	CameraRate	NumFrames	NumMarkers	Units	OrigDataRate	OrigDataStartFrame	OrigNumFrames
30.0	30.0	6	21	m	30.0	38	75
Frame#	Time	THUMB_TIP	THUMB_IP	THUMB_MCP	THUMB_CMC	INDEX_TIP	INDEX_DIP	INDEX_PIP	INDEX_MCP	MIDDLE_TIP	MIDDLE_DIP	MIDDLE_PIP	MIDDLE_MCP	RING_TIP	RING_DIP	RING_PIP	RING_MCP	PINKY_TIP	PINKY_DIP	PINKY_PIP	PINKY_MCP	WRIST
X1	Y1	Z1	X2	Y2	Z2	X3	Y3	Z3	X4	Y4	Z4	X5	Y5	Z5	X6	Y6	Z6	X7	Y7	Z7	X8	Y8	Z8	X9	Y9	Z9	X10	Y10	Z10	X11	Y11	Z11	X12	Y12	Z12	X13	Y13	Z13	X14	Y14	Z14	X15	Y15	Z15	X16	Y16	Z16	X17	Y17	Z17	X18	Y18	Z18	X19	Y19	Z19	X20	Y20	Z20	X21	Y21	Z21
36	1.233333333333328	0.4728701931510594	-0.023065443046487055	-0.1727798508771886	0.48080219663047585	-0.025850666468828165	-0.15139467256859906	0.4755303223623897	-0.03033959625713689	-0.12104871977325693	0.47639190016043775	-0.027279524719030723	-0.07655396001573517	0.5035203747555206	-0.015256043337731562	-0.09830363042022489	0.5214814339681917	-0.017079903913831407	-0.0997437292216507	0.5381875320605944	-0.0028038614379527482	-0.11195481970341892	0.5003157142183496	0.01609239714377564	-0.11667635747582861	0.5018255460363034	-0.01773614720003458	-0.08371185599882408	0.519591310173352	-0.01422515644632738	-0.08348698146905181	0.5400589012964994	0.004117862536546446	-0.09318341989816514	0.5040466284410173	0.0302066601884885	-0.09750068313525667	0.5036990881956616	-0.005201225053927283	-0.07027054516815617	0.5216439749933295	-0.003533393386252359	-0.06982403050189623	0.5410873004295942	0.011075079396968723	-0.07518403030799703	0.5099106563642474	0.03681235462822019	-0.07575880199613572	0.5085355708259875	-0.005009157908834605	-0.05466025148591286	0.5256170549381212	-0.005714127137425806	-0.05551226023801953	0.5397524934145712	0.009700653883825017	-0.057352348318896795	0.5116044043008785	0.0319532555382962	-0.053693079286009804	0.4622830810018609	-0.023011742144276925	-0.051989820119430985
37	1.2666666666666608	0.4727643435696324	-0.023071412262511526	-0.17278751041675194	0.4807255854623007	-0.025870537218763867	-0.15141501577981942	0.4754861787650453	-0.03033573607845952	-0.12105994014815402	0.4763740215000484	-0.027267946678613764	-0.07656622819381043	0.5035103339550666	-0.015223536676371552	-0.0983239342215379	0.5214729118318557	-0.01703175839221638	-0.09976481251155256	0.5381619161019697	-0.0027427794996920385	-0.11198414357675857	0.5002722850453454	0.016123361685844606	-0.11668315082938985	0.5017764824313958	-0.017716050742033418	-0.08372986808204808	0.5195391754180558	-0.014190234085586062	-0.08349459214452509	0.5400274789622403	0.004136402911398607	-0.09317825592752105	0.5040182673133874	0.030228490446424172	-0.0975011676190406	0.5036995330325025	-0.005198953951161656	-0.07028989584623058	0.5216401509027291	-0.0034832642911819534	-0.0698532730970014	0.5410745967691339	0.011141825191931298	-0.07520014605946385	0.5098725442001848	0.03684898685474114	-0.07574290634420355	0.5085289666982875	-0.0050691175294217405	-0.054667605152588616	0.5256127567210427	-0.0056990969095774835	-0.055532038168494946	0.5397480098066842	0.009719479384451168	-0.05734149783095527	0.5115933018321743	0.03196357552852591	-0.053681435453995896	0.4622830810018609	-0.023011742144276925	-0.051989820119430985
38	1.299999999999994	0.47221267399165856	-0.022905076831007842	-0.17278751848608775	0.4803330728273887	-0.02575634067852839	-0.15148189910479548	0.4753100149608199	-0.030249650299171926	-0.12109441717025321	0.4763222981738645	-0.027251838056502886	-0.07659859259699359	0.5033410050840261	-0.015108567033333853	-0.09841010930533539	0.5213016171985827	-0.01695458671963812	-0.09982736855763152	0.5380835798167958	-0.0027453975089718474	-0.11201238007409625	0.5002084467521133	0.016151821989627946	-0.11670338045294287	0.5016168948916148	-0.01770174523098267	-0.0837873502163865	0.5193674620017473	-0.014117173702001051	-0.08352617169066512	0.5399751004246377	0.004091538628017699	-0.09317902535753647	0.5040053916528769	0.03023808860316668	-0.09750174397800582	0.5035921902933935	-0.005184411516623855	-0.07035035234891629	0.5215285162195618	-0.0034313983772769063	-0.06988650193818047	0.5410205894517586	0.011126979856728947	-0.07520558863669413	0.5098469832608659	0.03686871271094483	-0.07574438425408903	0.5084605603958753	-0.005059725203400478	-0.05469302801140591	0.5255439813230773	-0.005697643223803839	-0.05555893217658603	0.5397354614930713	0.009672108172719684	-0.05734349139211592	0.5116061512860703	0.031951402005784724	-0.05370227942653871	0.4622830810018609	-0.023011742144276925	-0.051989820119430985
39	1.3333333333333275	0.47125812578225235	-0.022677857426109838	-0.17281209547621512	0.4796336058474505	-0.025568292014127803	-0.1516107577455469	0.47497680875930404	-0.030100848937680946	-0.12117081410869718	0.4762049832484616	-0.02720004301939405	-0.07667399498138638	0.5030562231855743	-0.014807943617999642	-0.0986005319757699	0.5210038125100964	-0.016800064772291345	-0.09998454452806899	0.5378710159896117	-0.0027053489694151	-0.112184801337529	0.500007455248684	0.01624186674878314	-0.11676627255823258	0.5012941475685551	-0.01746749405546677	-0.08395472365095813	0.5190405952742828	-0.013864036056293383	-0.08367421647446732	0.5398101174879799	0.004153530061743349	-0.09333878103770132	0.5038415229013646	0.03031861801313729	-0.09755734678443723	0.5033686741439125	-0.004897283421270604	-0.0705074596416494	0.5213076428884427	-0.0031726454518498093	-0.07003945936686051	0.5408849668405425	0.011262348188178395	-0.07538168029891545	0.5096842095213383	0.03697331337567067	-0.07580576264431954	0.508339260062217	-0.004822806626943121	-0.054813644687003005	0.5254201846759217	-0.0054968592138233685	-0.05570115099743522	0.5397006335135791	0.009787972707077763	-0.05750523335277641	0.511536645997266	0.03201093989074977	-0.05378865054939308	0.4622830810018609	-0.023011742144276925	-0.051989820119430985
40	1.3666666666666607	0.4704474343572018	-0.02252535026939506	-0.17286811803032348	0.4789966763442295	-0.025437844289257328	-0.15173927897013118	0.4746173316351383	-0.029960521171134458	-0.12125671454813591	0.47606959618068223	-0.027125056040019024	-0.07676243328436017	0.5027217300151601	-0.014407360266489921	-0.09892022183652449	0.520656924000276	-0.01656041057302271	-0.10022144860146598	0.5375920096865778	-0.0025760257111350215	-0.11245458743956543	0.49970981111184976	0.016376328610814173	-0.11685724468265846	0.5008972615833696	-0.016864303352058574	-0.0841971759186288	0.5186958239210808	-0.013530392643894662	-0.08388698549229379	0.5396098356769158	0.004291438274652726	-0.09360274614123487	0.5036041193760594	0.030434457445848495	-0.09763745347594255	0.503059894835886	-0.004305260701964686	-0.07069361616744851	0.5210185625735873	-0.0027917938425894295	-0.0702512688464213	0.5407025894292261	0.011466688317171903	-0.07567480572250695	0.5094515235526591	0.03711899664202101	-0.07590017915784919	0.5082139360901676	-0.004383604472040559	-0.054998572496703924	0.5252855867913757	-0.005191667943485134	-0.05595029502037285	0.5396657737553876	0.009992054937914219	-0.05781491330327354	0.5114314439329642	0.03209955266547915	-0.05394650087640673	0.4622830810018609	-0.023011742144276925	-0.051989820119430985
41	1.3999999999999937	0.4706535314359742	-0.022684654869927212	-0.17296676553578522	0.47904318408488655	-0.02553414629914752	-0.1517654889934305	0.4744882468871149	-0.02997676534662086	-0.12129688739894662	0.4760028711468033	-0.02706212116974749	-0.07680980205191384	0.5026557043887125	-0.01416647102560753	-0.0991703252506877	0.5205882948548244	-0.016307625274636806	-0.10052592757311829	0.5373623747365313	-0.002243798116996487	-0.11288913277250456	0.49935269692289463	0.01652392080238063	-0.11697241736542696	0.5007442457577449	-0.01611717269195767	-0.08441455157392375	0.5186242706907301	-0.013245662365064081	-0.08417137090370169	0.539460533941013	0.00459555602945827	-0.0940177209870513	0.5032969333521411	0.03056304450416747	-0.0977635794686812	0.5029317680324898	-0.0035899437543697177	-0.07081348037449758	0.5209178587500465	-0.002388818986890584	-0.07057298090927755	0.5405612000899294	0.011865528874436149	-0.07615264819802742	0.5091331996061421	0.03730160617626921	-0.07606552135800865	0.5083046246369738	-0.003936171655888998	-0.055196786990413804	0.5253586122698221	-0.00482946586460542	-0.056364490409664625	0.5396797172437261	0.010392539713145466	-0.05836661865664167	0.5112796839644045	0.0322261631639329	-0.054169661694431326	0.4622830810018609	-0.023011742144276925	-0.051989820119430985
